<svg width="512" height="512" viewBox="0 0 512 512" fill="none" xmlns="http://www.w3.org/2000/svg">
<path d="M129.686 479.999C129.693 471.515 133.069 463.381 139.072 457.386L302.742 293.716C307.695 288.764 311.625 282.884 314.306 276.412C316.988 269.94 318.367 263.004 318.367 255.999C318.367 248.994 316.988 242.058 314.306 235.586C311.625 229.114 307.695 223.234 302.742 218.282L139.286 54.7191C133.456 48.6838 130.231 40.6005 130.304 32.2102C130.377 23.8199 133.742 15.7939 139.675 9.86087C145.608 3.92781 153.634 0.5624 162.025 0.489491C170.415 0.416582 178.498 3.642 184.534 9.47106L347.99 172.906C369.968 194.927 382.312 224.769 382.312 255.882C382.312 286.994 369.968 316.836 347.99 338.858L184.32 502.527C179.851 506.999 174.158 510.047 167.959 511.286C161.759 512.525 155.332 511.901 149.487 509.491C143.642 507.081 138.642 502.994 135.118 497.745C131.594 492.496 129.704 486.321 129.686 479.999V479.999Z" fill="#4D93F7"/>
</svg>
