<svg width="32" height="32" viewBox="0 0 32 32" fill="none" xmlns="http://www.w3.org/2000/svg">
<path opacity="0.2" d="M11.7573 23.0711C10.3431 27.3137 4.68628 27.3137 4.68628 27.3137C4.68628 27.3137 4.68628 21.6569 8.92892 20.2427L11.7573 23.0711Z" fill="#2B95FF"/>
<path opacity="0.2" d="M23.0711 14.5857V22.6568C23.0711 22.7881 23.0452 22.9181 22.9949 23.0394C22.9447 23.1608 22.871 23.271 22.7782 23.3639L18.7355 27.4066C18.6075 27.5346 18.4471 27.6254 18.2716 27.6694C18.096 27.7135 17.9118 27.709 17.7386 27.6566C17.5653 27.6041 17.4096 27.5056 17.2879 27.3716C17.1663 27.2376 17.0833 27.0731 17.0478 26.8956L16 21.6568L23.0711 14.5857Z" fill="#2B95FF"/>
<path opacity="0.2" d="M17.4143 8.92896H9.34326C9.21194 8.92895 9.0819 8.95482 8.96057 9.00508C8.83925 9.05533 8.72901 9.12899 8.63615 9.22185L4.59343 13.2646C4.46544 13.3926 4.37459 13.5529 4.33057 13.7284C4.28654 13.904 4.29099 14.0882 4.34345 14.2615C4.3959 14.4347 4.49438 14.5904 4.6284 14.7121C4.76241 14.8338 4.92694 14.9168 5.10442 14.9523L10.3433 16L17.4143 8.92896Z" fill="#2B95FF"/>
<path d="M11.7573 23.0711C10.3431 27.3137 4.68628 27.3137 4.68628 27.3137C4.68628 27.3137 4.68628 21.6569 8.92892 20.2427" stroke="#2B95FF" stroke-width="2" stroke-linecap="round" stroke-linejoin="round"/>
<path d="M24.4854 13.1715L16.0001 21.6568L10.3433 15.9999L18.8285 7.51466C22.0416 4.30164 25.2546 4.33298 26.6248 4.53743C26.8358 4.56888 27.0311 4.66727 27.182 4.8181C27.3328 4.96894 27.4312 5.16423 27.4626 5.37521C27.6671 6.74548 27.6984 9.9585 24.4854 13.1715Z" stroke="#2B95FF" stroke-width="2" stroke-linecap="round" stroke-linejoin="round"/>
<path d="M23.0711 14.5857V22.6568C23.0711 22.7881 23.0452 22.9181 22.9949 23.0394C22.9447 23.1608 22.871 23.271 22.7782 23.3639L18.7355 27.4066C18.6075 27.5346 18.4471 27.6254 18.2716 27.6694C18.096 27.7135 17.9118 27.709 17.7386 27.6566C17.5653 27.6041 17.4096 27.5056 17.2879 27.3716C17.1663 27.2376 17.0833 27.0731 17.0478 26.8956L16 21.6568" stroke="#2B95FF" stroke-width="2" stroke-linecap="round" stroke-linejoin="round"/>
<path d="M17.4143 8.92896H9.34326C9.21194 8.92895 9.0819 8.95482 8.96057 9.00508C8.83925 9.05533 8.72901 9.12899 8.63615 9.22185L4.59343 13.2646C4.46544 13.3926 4.37459 13.5529 4.33057 13.7284C4.28654 13.904 4.29099 14.0882 4.34345 14.2615C4.3959 14.4347 4.49438 14.5904 4.6284 14.7121C4.76241 14.8338 4.92694 14.9168 5.10442 14.9523L10.3433 16" stroke="#2B95FF" stroke-width="2" stroke-linecap="round" stroke-linejoin="round"/>
</svg>
