<svg width="32" height="32" viewBox="0 0 32 32" fill="none" xmlns="http://www.w3.org/2000/svg">
<path opacity="0.2" d="M4.58384 21.6312L7.60725 4.48456C7.6533 4.22337 7.80123 3.99118 8.01848 3.83906C8.23573 3.68693 8.50452 3.62735 8.7657 3.6734L15.6594 4.88894C15.9205 4.93499 16.1527 5.08292 16.3049 5.30017C16.457 5.51742 16.5166 5.78621 16.4705 6.04739L13.4317 23.2815C13.2271 24.4419 12.5755 25.4757 11.6169 26.161C10.6584 26.8462 9.46933 27.1281 8.30518 26.9462C5.81234 26.5556 4.14568 24.1161 4.58384 21.6312Z" fill="#2B95FF"/>
<path d="M8.99976 24C9.82818 24 10.4998 23.3284 10.4998 22.5C10.4998 21.6716 9.82818 21 8.99976 21C8.17133 21 7.49976 21.6716 7.49976 22.5C7.49976 23.3284 8.17133 24 8.99976 24Z" fill="#2B95FF"/>
<path d="M4.58384 21.6312L7.60725 4.48456C7.6533 4.22337 7.80123 3.99118 8.01848 3.83906C8.23573 3.68693 8.50452 3.62735 8.7657 3.6734L15.6594 4.88894C15.9205 4.93499 16.1527 5.08292 16.3049 5.30017C16.457 5.51742 16.5166 5.78621 16.4705 6.04739L13.4317 23.2815C13.2271 24.4419 12.5755 25.4757 11.6169 26.161C10.6584 26.8462 9.46933 27.1281 8.30518 26.9462C5.81234 26.5556 4.14568 24.1161 4.58384 21.6312Z" stroke="#2B95FF" stroke-width="2" stroke-linecap="round" stroke-linejoin="round"/>
<path d="M14.7851 15.6055L23.9055 12.2859C24.1547 12.1952 24.4298 12.2072 24.6701 12.3193C24.9105 12.4314 25.0965 12.6343 25.1872 12.8836L27.5814 19.4614C27.6263 19.5848 27.6464 19.7159 27.6407 19.8471C27.635 19.9782 27.6035 20.107 27.548 20.2261C27.4925 20.3451 27.4141 20.452 27.3173 20.5407C27.2204 20.6294 27.1071 20.6982 26.9837 20.7431L10.5391 26.7285" stroke="#2B95FF" stroke-width="2" stroke-linecap="round" stroke-linejoin="round"/>
<path d="M27.5 20.3167V26C27.5 26.2652 27.3946 26.5196 27.2071 26.7071C27.0196 26.8947 26.7652 27 26.5 27H9" stroke="#2B95FF" stroke-width="2" stroke-linecap="round" stroke-linejoin="round"/>
</svg>
